<svg xmlns="http://www.w3.org/2000/svg" width="24" height="24" viewBox="0 0 40 40" fill="#fffff">
  <path fill-rule="evenodd" clip-rule="evenodd" d="M35.0003 20C35.0003 28.2842 28.2846 35 20.0003 35C11.7161 35 5.00033 28.2842 5.00033 20C5.00033 11.7157 11.7161 4.99996 20.0003 4.99996C28.2846 4.99996 35.0003 11.7157 35.0003 20ZM38.3337 20C38.3337 30.1252 30.1255 38.3333 20.0003 38.3333C9.8751 38.3333 1.66699 30.1252 1.66699 20C1.66699 9.87474 9.8751 1.66663 20.0003 1.66663C30.1255 1.66663 38.3337 9.87474 38.3337 20ZM17.0122 14.6548C16.3613 14.0039 15.306 14.0039 14.6551 14.6548C14.0043 15.3057 14.0043 16.3609 14.6551 17.0118L17.6433 20L14.6551 22.9881C14.0043 23.639 14.0043 24.6943 14.6551 25.3451C15.306 25.996 16.3613 25.996 17.0122 25.3451L20.0003 22.357L22.9885 25.3451C23.6394 25.996 24.6946 25.996 25.3455 25.3451C25.9964 24.6943 25.9964 23.639 25.3455 22.9881L22.3573 20L25.3455 17.0118C25.9964 16.3609 25.9964 15.3057 25.3455 14.6548C24.6946 14.0039 23.6394 14.0039 22.9885 14.6548L20.0003 17.6429L17.0122 14.6548Z" fill="black"/>
</svg>